<svg xmlns="http://www.w3.org/2000/svg" viewBox="0 0 96 96" role="img" aria-labelledby="title desc">
  <title id="title">Workflow</title>
  <desc id="desc">A brain and evidence spark representing LLM-readable workflow output.</desc>
  <rect width="96" height="96" rx="18" fill="#f8fbfc"/>
  <path d="M34 67c-9 0-16-7-16-16 0-7 5-13 11-15 2-8 9-14 18-14 5 0 10 2 13 6 10 0 18 8 18 18 0 9-7 16-16 16" fill="none" stroke="#0f9aa6" stroke-width="5" stroke-linecap="round" stroke-linejoin="round"/>
  <path d="M47 22v49M34 39c6 0 10 4 10 10M60 36c-6 1-10 5-10 11M35 56c5 0 8 3 9 7M61 53c-5 0-9 4-10 9" fill="none" stroke="#0b1526" stroke-width="4" stroke-linecap="round"/>
  <path d="M72 20l3 6 6 3-6 3-3 6-3-6-6-3 6-3z" fill="#7c3fe0"/>
  <circle cx="78" cy="59" r="4" fill="#f2a21b"/>
</svg>
